<svg width="2207" height="631" viewBox="0 0 2207 631" fill="none" xmlns="http://www.w3.org/2000/svg">
<path d="M836.469 112.847H873.411V443.28H836.469V414.136H835.543C821.682 432.161 799.51 449.724 761.61 449.724C702.461 449.724 655.326 403.05 655.326 325.415C655.326 247.78 702.461 201.106 761.61 201.106C799.51 201.106 821.682 217.744 835.543 238.082H836.469V112.847ZM836.469 325.415C836.469 269.968 809.209 233.456 765.31 233.456C716.786 233.456 692.286 279.204 692.286 325.415C692.286 371.627 716.786 417.375 765.31 417.375C809.209 417.375 836.469 380.862 836.469 325.415Z" fill="#030615"/>
<path d="M1011.39 233.456C966.563 233.456 951.759 246.392 949.462 280.593H912.487C914.8 235.306 942.986 201.106 1011.39 201.106C1056.21 201.106 1096.41 218.67 1096.41 275.455V390.065C1096.41 408.553 1099.71 418.713 1123.2 415.939V441.828C1116.26 444.397 1108.9 445.648 1101.49 445.512C1079.31 445.512 1065.91 439.513 1059.45 413.624H1058.46C1043.67 435.813 1017.33 449.675 978.524 449.675C930.925 449.675 900.873 422.415 900.873 382.663C900.873 329.066 940.607 315.204 1001.65 303.657C1041.41 296.256 1059.48 291.167 1059.48 267.606C1059.45 249.168 1049.27 233.456 1011.39 233.456ZM1059.45 352.213V312.943C1052.51 319.864 1029.86 326.341 1004.93 331.43C959.161 341.127 937.848 352.676 937.848 380.863C937.848 403.992 951.71 417.375 982.225 417.375C1026.17 417.375 1059.45 397.5 1059.45 352.213Z" fill="#030615"/>
<path d="M1309.58 207.582H1346.56V430.311C1346.56 493.095 1306.83 525.046 1242.13 525.046C1177.43 525.046 1139.07 490.847 1135.38 450.7H1172.45C1177.08 474.721 1196.49 492.748 1240.39 492.748C1284.29 492.748 1309.7 473.797 1309.7 429.964V394.277H1308.78C1294.91 414.599 1272.74 431.237 1233.91 431.237C1175.69 431.237 1128.56 393.816 1128.56 316.179C1128.56 238.545 1175.69 201.106 1233.91 201.106C1272.74 201.106 1294.91 218.67 1308.78 236.695H1309.7L1309.58 207.582ZM1309.58 316.179C1309.58 260.717 1282.32 233.456 1238.43 233.456C1189.9 233.456 1165.42 269.968 1165.42 316.179C1165.42 362.391 1189.9 398.887 1238.43 398.887C1282.39 398.887 1309.58 371.627 1309.58 316.179Z" fill="#030615"/>
<path d="M1573.75 378.565C1573.75 421.522 1534.48 449.724 1480.86 449.724C1408.78 449.724 1375.51 415.525 1373.19 364.704H1410.17C1412.47 391.04 1421.73 417.375 1480.86 417.375C1521.06 417.375 1536.77 396.574 1536.77 380.863C1536.77 346.679 1505.81 344.829 1472.09 336.501C1436.04 327.728 1382.43 323.565 1382.43 268.118C1382.43 231.143 1415.24 201.106 1470.7 201.106C1529.39 201.106 1560.81 234.382 1564.5 275.041H1527.54C1523.84 257.032 1515.06 233.456 1470.7 233.456C1437.43 233.456 1419.49 246.855 1419.49 265.342C1419.49 293.066 1451.37 295.379 1484.19 303.244C1526.15 313.404 1573.75 320.327 1573.75 378.565Z" fill="#030615"/>
<path d="M1698.7 239.93H1652.44V381.785C1652.44 408.6 1667.31 413.177 1698.7 410.913V443.278C1689.58 445.185 1680.29 446.117 1670.98 446.054C1639.59 446.054 1615.51 433.581 1615.51 385.518V239.963H1580.82V207.58H1615.51V129.02H1652.49V207.58H1698.75L1698.7 239.93Z" fill="#030615"/>
<path d="M1895.18 370.701H1932.15C1920.13 414.599 1886.41 449.724 1827.72 449.724C1756.08 449.724 1712.65 399.35 1712.65 325.415C1712.65 246.855 1757.01 201.106 1825.87 201.106C1899.8 201.106 1935.86 251.481 1935.86 335.114H1749.62C1749.62 377.642 1775.03 417.375 1826.33 417.375C1873.47 417.375 1891.02 386.875 1895.18 370.701ZM1749.62 302.848H1898.88C1898.88 264.946 1870.23 233.456 1825.87 233.456C1781.51 233.456 1749.62 264.848 1749.62 302.848Z" fill="#030615"/>
<path d="M2088.33 202.495V239.471H2087.41C2036.18 231.21 2000.54 267.194 2000.54 317.568V443.282H1963.56V207.584H2000.54V254.256H2001.47C2013.94 223.296 2032.85 201.106 2066.62 201.106C2073.89 201.032 2081.14 201.495 2088.33 202.495Z" fill="#030615"/>
<path d="M257.629 508.078C257.635 510.416 258.124 512.729 259.066 514.871C260.005 517.012 261.377 518.937 263.095 520.525C264.811 522.113 266.838 523.328 269.044 524.099C271.253 524.867 273.595 525.172 275.928 524.997C364.548 518.651 448.247 455.936 474.968 357.978C476.372 352.345 480.6 349.52 486.231 349.52C489.119 349.636 491.844 350.885 493.816 352.997C495.788 355.109 496.848 357.915 496.767 360.805C496.767 382.646 468.693 439.728 428.544 472.854C426.499 474.576 424.865 476.737 423.772 479.178C422.677 481.617 422.145 484.273 422.22 486.946C422.259 489.121 422.728 491.265 423.601 493.258C424.471 495.25 425.726 497.051 427.295 498.556C428.863 500.061 430.713 501.243 432.738 502.031C434.763 502.821 436.925 503.203 439.098 503.154C442.614 503.154 448.247 501.04 455.282 494.695C483.358 469.317 536.867 398.143 536.867 319.913C536.867 205.22 448.198 106.387 324.448 106.387C214.029 106.387 118.373 196.595 118.373 300.897C118.373 369.956 173.236 422.099 245.673 422.099C301.246 422.099 352.591 382.646 366.662 328.373C368.065 322.738 372.277 319.913 377.909 319.913C380.798 320.029 383.524 321.278 385.498 323.39C387.472 325.502 388.538 328.306 388.461 331.198C388.461 355.864 342.037 441.891 247.787 441.891C225.276 441.891 197.15 435.547 177.448 424.264C174.81 422.986 171.937 422.265 169.008 422.149C166.766 422.062 164.53 422.442 162.441 423.262C160.352 424.081 158.455 425.326 156.87 426.914C155.285 428.504 154.045 430.403 153.23 432.496C152.414 434.586 152.04 436.824 152.13 439.066C152.221 441.94 153.044 444.744 154.521 447.209C155.998 449.675 158.08 451.724 160.569 453.16C186.597 468.029 217.547 475.712 249.189 475.712C327.967 475.712 399.709 422.149 420.815 343.225C422.22 337.591 426.447 334.766 432.062 334.766C434.951 334.882 437.677 336.131 439.651 338.243C441.627 340.355 442.691 343.158 442.614 346.051C442.614 378.465 384.945 482.767 273.814 491.225C269.513 491.544 265.484 493.442 262.496 496.552C259.509 499.663 257.775 503.767 257.629 508.078Z" fill="#4F43DD"/>
<path d="M367.752 238.178C382.92 238.066 397.81 242.258 410.691 250.273C411.993 243.145 412.71 235.923 412.838 228.678C412.838 195.222 387.339 165.252 356.29 165.252C332.146 165.252 317.051 185.26 317.051 209.976C316.935 223.328 321.626 236.277 330.263 246.457C341.965 240.873 354.789 238.042 367.752 238.178Z" fill="white"/>
<path d="M440.501 359.384C444.812 344.648 446.711 334.421 446.711 327.778C446.579 324.911 445.35 322.202 443.279 320.216C441.206 318.228 438.45 317.115 435.58 317.105C432.906 317.155 430.325 318.098 428.249 319.783C426.172 321.469 424.718 323.8 424.118 326.406C422.945 331.249 420.435 344.366 417.957 352.694C418.981 349.575 419.917 346.409 420.766 343.194C422.169 337.544 426.397 334.734 432.012 334.734C434.9 334.846 437.627 336.092 439.601 338.202C441.577 340.31 442.641 343.113 442.566 346.001C442.434 350.544 441.705 355.048 440.403 359.4L440.501 359.384Z" fill="#352D8E"/>
<path d="M500.286 343.982C500.15 341.117 498.922 338.414 496.854 336.428C494.787 334.444 492.037 333.327 489.17 333.31C486.499 333.363 483.922 334.306 481.849 335.991C479.777 337.677 478.325 340.006 477.726 342.611C476.536 347.567 473.977 360.883 471.467 369.193H471.581C472.805 365.494 473.943 361.742 474.885 357.926C476.288 352.276 480.516 349.467 486.148 349.467C489.034 349.579 491.759 350.826 493.731 352.934C495.703 355.044 496.765 357.847 496.684 360.736C496.604 364.242 496.123 367.73 495.248 371.126C498.749 358.834 500.286 349.945 500.286 343.982Z" fill="#352D8E"/>
<path d="M367.751 238.182C375.288 238.168 382.795 239.173 390.062 241.173C393.879 235.968 395.786 229.606 395.463 223.158C395.139 216.712 392.606 210.571 388.289 205.774C383.971 200.976 378.133 197.812 371.758 196.815C365.383 195.818 358.858 197.048 353.282 200.299L364.843 219.332L343.193 209.964C340.26 214.698 338.79 220.193 338.965 225.761C339.143 231.326 340.957 236.716 344.184 241.256C351.868 239.185 359.793 238.151 367.751 238.182Z" fill="#0E0F34"/>
<path d="M200.949 360.673C210.07 360.673 217.464 353.275 217.464 344.151C217.464 335.026 210.07 327.63 200.949 327.63C191.828 327.63 184.434 335.026 184.434 344.151C184.434 353.275 191.828 360.673 200.949 360.673Z" fill="#352D8E"/>
<path d="M200.949 294.585C210.07 294.585 217.464 287.189 217.464 278.063C217.464 268.938 210.07 261.542 200.949 261.542C191.828 261.542 184.434 268.938 184.434 278.063C184.434 287.189 191.828 294.585 200.949 294.585Z" fill="#352D8E"/>
<path d="M167.919 327.628C177.041 327.628 184.435 320.23 184.435 311.104C184.435 301.981 177.041 294.583 167.919 294.583C158.798 294.583 151.404 301.981 151.404 311.104C151.404 320.23 158.798 327.628 167.919 327.628Z" fill="#352D8E"/>
<path d="M242.236 422.066H245.538C301.111 422.066 352.457 382.612 366.53 328.337C367.932 322.705 372.144 319.88 377.775 319.88C380.663 319.996 383.39 321.245 385.366 323.357C387.34 325.469 388.406 328.272 388.329 331.162C388.077 336.931 386.773 342.603 384.481 347.901C384.879 347.284 385.228 346.638 385.522 345.966C389.7 336.411 391.859 326.095 391.863 315.665C391.863 299.459 380.6 288.884 364.431 288.884C336.241 288.884 330.592 313.502 318.701 339.821C306.364 367.147 283.705 396.705 226.562 396.705C167.191 396.705 106.184 355.119 121.064 270.561C121.246 269.505 121.394 268.564 121.51 267.687C119.33 278.611 118.223 289.723 118.207 300.862C118.372 368.932 171.534 420.48 242.236 422.066Z" fill="#352D8E"/>
</svg>
